<svg width="19" height="20" viewBox="0 0 19 20" fill="none" xmlns="http://www.w3.org/2000/svg">
<path d="M9.85479 3.18262C7.37229 3.18262 5.35479 5.20012 5.35479 7.68262V9.85012C5.35479 10.3076 5.15979 11.0051 4.92729 11.3951L4.06479 12.8276C3.53229 13.7126 3.89979 14.6951 4.87479 15.0251C8.10729 16.1051 11.5947 16.1051 14.8272 15.0251C15.7347 14.7251 16.1322 13.6526 15.6372 12.8276L14.7747 11.3951C14.5497 11.0051 14.3547 10.3076 14.3547 9.85012V7.68262C14.3547 5.20762 12.3297 3.18262 9.85479 3.18262Z" stroke="#2C323F" stroke-width="1.3" stroke-miterlimit="10" stroke-linecap="round"/>
<path d="M11.2422 3.40008C11.0097 3.33258 10.7698 3.28008 10.5223 3.25008C9.80228 3.16008 9.11229 3.21258 8.46729 3.40008C8.68479 2.84508 9.22479 2.45508 9.85479 2.45508C10.4848 2.45508 11.0247 2.84508 11.2422 3.40008Z" stroke="#2C323F" stroke-width="1.3" stroke-miterlimit="10" stroke-linecap="round" stroke-linejoin="round"/>
<path d="M12.1049 15.2949C12.1049 16.5324 11.0924 17.5449 9.85498 17.5449C9.23998 17.5449 8.66998 17.2899 8.26498 16.8849C7.85998 16.4799 7.60498 15.9099 7.60498 15.2949" stroke="#2C323F" stroke-width="1.3" stroke-miterlimit="10"/>
</svg>
