<svg width="19" height="20" viewBox="0 0 19 20" fill="none" xmlns="http://www.w3.org/2000/svg">
<path d="M9.85491 3.18262C7.37241 3.18262 5.35491 5.20012 5.35491 7.68262V9.85012C5.35491 10.3076 5.15991 11.0051 4.92741 11.3951L4.06491 12.8276C3.53241 13.7126 3.89991 14.6951 4.87491 15.0251C8.10741 16.1051 11.5949 16.1051 14.8274 15.0251C15.7349 14.7251 16.1324 13.6526 15.6374 12.8276L14.7749 11.3951C14.5499 11.0051 14.3549 10.3076 14.3549 9.85012V7.68262C14.3549 5.20762 12.3299 3.18262 9.85491 3.18262Z" stroke="#2C323F" stroke-width="1.3" stroke-miterlimit="10" stroke-linecap="round"/>
<path d="M11.2424 3.40008C11.0099 3.33258 10.7699 3.28008 10.5224 3.25008C9.80241 3.16008 9.11241 3.21258 8.46741 3.40008C8.68491 2.84508 9.22491 2.45508 9.85491 2.45508C10.4849 2.45508 11.0249 2.84508 11.2424 3.40008Z" stroke="#2C323F" stroke-width="1.3" stroke-miterlimit="10" stroke-linecap="round" stroke-linejoin="round"/>
<path d="M12.1051 15.2949C12.1051 16.5324 11.0926 17.5449 9.8551 17.5449C9.2401 17.5449 8.6701 17.2899 8.2651 16.8849C7.8601 16.4799 7.6051 15.9099 7.6051 15.2949" stroke="#2C323F" stroke-width="1.3" stroke-miterlimit="10"/>
</svg>
