<svg width="725" height="285" viewBox="0 0 725 285" fill="none" xmlns="http://www.w3.org/2000/svg">
<path d="M3.85938 1.38989H721.5" stroke="#E0E0E0"/>
<path d="M3.85938 71.8899H721.5" stroke="#E0E0E0"/>
<path d="M3.85938 142.39H721.5" stroke="#E0E0E0"/>
<path d="M3.85938 212.89H721.5" stroke="#E0E0E0"/>
<path d="M3.85938 283.39H721.5" stroke="#E0E0E0"/>
<mask id="mask0_139_2399" style="mask-type:luminance" maskUnits="userSpaceOnUse" x="0" y="0" width="725" height="285">
<path d="M724.5 0.389893H0.859375V284.39H724.5V0.389893Z" fill="white"/>
</mask>
<g mask="url(#mask0_139_2399)">
<path d="M17.3151 283.39V138.451C22.1304 134.303 26.9457 134.303 31.7611 138.451V283.39H17.3151Z" fill="#FCA034" fill-opacity="0.85"/>
</g>
<path d="M77.1185 283.39V98.9714C81.9338 94.8227 86.7492 94.8227 91.5645 98.9714V283.39H77.1185Z" fill="#FCA034" fill-opacity="0.85"/>
<path d="M136.922 283.39V104.611C141.737 100.463 146.553 100.463 151.368 104.611V283.39H136.922Z" fill="#FCA034" fill-opacity="0.85"/>
<path d="M196.725 283.39V83.8139C201.541 79.6652 206.356 79.6652 211.171 83.8139V283.39H196.725Z" fill="#FCA034" fill-opacity="0.85"/>
<path d="M256.529 283.39V103.554C261.344 99.4052 266.159 99.4052 270.975 103.554V283.39H256.529Z" fill="#FCA034" fill-opacity="0.85"/>
<path d="M316.332 283.39V104.259C321.147 100.11 325.963 100.11 330.778 104.259V283.39H316.332Z" fill="#FCA034" fill-opacity="0.85"/>
<path d="M376.135 283.39V126.466C380.951 122.318 385.766 122.318 390.581 126.466V283.39H376.135Z" fill="#FCA034" fill-opacity="0.85"/>
<path d="M435.939 283.39V215.856V148.321C440.754 144.173 445.569 144.173 450.385 148.321V283.39H435.939Z" fill="#FCA034" fill-opacity="0.85"/>
<path d="M495.742 283.39V194.146C500.557 189.998 505.373 189.998 510.188 194.146V283.39H495.742Z" fill="#FCA034" fill-opacity="0.85"/>
<path d="M555.546 283.39V151.494C560.361 147.345 565.176 147.345 569.992 151.494V283.39H555.546Z" fill="#FCA034" fill-opacity="0.85"/>
<path d="M615.349 283.39V129.286C620.164 125.138 624.98 125.138 629.795 129.286V283.39H615.349Z" fill="#FCA034" fill-opacity="0.85"/>
<path d="M675.152 283.39V92.2739C679.968 88.1252 684.783 88.1252 689.598 92.2739V283.39H675.152Z" fill="#FCA034" fill-opacity="0.85"/>
<path d="M33.761 283.39V168.061C38.5764 163.913 43.3917 163.913 48.207 168.061V283.39H33.761Z" fill="#2945D9" fill-opacity="0.85"/>
<path d="M93.5645 283.39V70.7714C98.3798 66.6227 103.195 66.6227 108.01 70.7714V283.39H93.5645Z" fill="#3D5EE1" fill-opacity="0.85"/>
<path d="M153.368 283.39V165.241C158.183 161.093 162.998 161.093 167.814 165.241V283.39H153.368Z" fill="#3D5EE1" fill-opacity="0.85"/>
<path d="M213.171 283.39V58.4339C217.987 54.2852 222.802 54.2852 227.617 58.4339V283.39H213.171Z" fill="#3D5EE1" fill-opacity="0.85"/>
<path d="M272.975 283.39V164.889C277.79 160.74 282.605 160.74 287.421 164.889V283.39H272.975Z" fill="#2945D9" fill-opacity="0.85"/>
<path d="M332.778 283.39V88.0439C337.593 83.8952 342.409 83.8952 347.224 88.0439V283.39H332.778Z" fill="#2945D9" fill-opacity="0.85"/>
<path d="M392.581 283.39V196.261C397.397 192.113 402.212 192.113 407.027 196.261V283.39H392.581Z" fill="#2945D9" fill-opacity="0.85"/>
<path d="M452.385 283.39V165.241C457.2 161.093 462.015 161.093 466.831 165.241V283.39H452.385Z" fill="#2945D9" fill-opacity="0.85"/>
<path d="M512.188 283.39V172.644C517.003 168.495 521.819 168.495 526.634 172.644V283.39H512.188Z" fill="#2945D9" fill-opacity="0.85"/>
<path d="M571.991 283.39V180.751C576.807 176.603 581.622 176.603 586.437 180.751V283.39H571.991Z" fill="#2945D9" fill-opacity="0.85"/>
<path d="M631.795 283.39V126.114C636.61 121.965 641.426 121.965 646.241 126.114V283.39H631.795Z" fill="#2945D9" fill-opacity="0.85"/>
<path d="M691.598 283.39V125.761C696.414 121.613 701.229 121.613 706.044 125.761V283.39H691.598Z" fill="#2945D9" fill-opacity="0.85"/>
</svg>
