<svg width="734" height="271" viewBox="0 0 734 271" fill="none" xmlns="http://www.w3.org/2000/svg">
<mask id="mask0_139_2350" style="mask-type:luminance" maskUnits="userSpaceOnUse" x="0" y="0" width="734" height="271">
<path d="M733.5 0.889893H0.75V270.238H733.5V0.889893Z" fill="white"/>
</mask>
<g mask="url(#mask0_139_2350)">
<path d="M6 236C48.2188 236 83.6562 91.5059 125.875 91.5059C168.094 91.5059 204.281 25.4189 246.5 25.4189C288.719 25.4189 320.281 170.81 362.5 170.81C404.719 170.81 392.25 61.9999 465.5 170.81C501.98 225 561.5 201.5 608.375 170.81C655.25 140.121 687.781 54.4999 730 54.4999" stroke="#FCA034" stroke-opacity="0.85" stroke-width="5"/>
</g>
<path d="M5.25 250.115C47.4688 250.115 83.6562 144.375 125.875 144.375C168.094 144.375 204.281 109.129 246.5 109.129C288.719 109.129 324.906 214.868 367.125 214.868C409.344 214.868 445.531 206.057 487.75 206.057C529.969 206.057 567.781 35.9997 610 35.9997C652.219 35.9997 686.781 245.709 729 245.709" stroke="#2945D9" stroke-opacity="0.85" stroke-width="5"/>
</svg>
